<?xml version="1.0" encoding="utf-8"?>
<!-- Generator: Adobe Illustrator 16.0.0, SVG Export Plug-In . SVG Version: 6.00 Build 0)  -->
<!DOCTYPE svg PUBLIC "-//W3C//DTD SVG 1.1//EN" "http://www.w3.org/Graphics/SVG/1.1/DTD/svg11.dtd">
<svg version="1.1" id="Calque_1" xmlns="http://www.w3.org/2000/svg" xmlns:xlink="http://www.w3.org/1999/xlink" x="0px" y="0px"
	 width="374.666px" height="196.461px" viewBox="-88.082 -86.23 374.666 196.461"
	 enable-background="new -88.082 -86.23 374.666 196.461" xml:space="preserve">
<polyline fill="none" stroke="#FFFFFF" stroke-width="0.9456" stroke-miterlimit="10" points="188.352,-86.23 286.584,12 
	188.352,110.23 "/>
<polyline fill="none" stroke="#FFFFFF" stroke-width="0.9456" stroke-miterlimit="10" points="140.301,110.23 42.067,12 
	140.301,-86.23 "/>
<g>
	<path fill="#FFFFFF" d="M-85.193,7.373v3.072h4.96v1.744h-4.96v4.608h-1.888V5.612h7.456l-0.016,1.76H-85.193z"/>
	<path fill="#FFFFFF" d="M-69.562,5.612v1.776h-5.968v2.96h5.36v1.68h-5.36v2.992h6.16v1.776h-8.048V5.612H-69.562z"/>
	<path fill="#FFFFFF" d="M-58.026,9.245c0,1.845-0.806,3.008-2.416,3.488l2.928,4.064h-2.4l-2.672-3.76h-2.48v3.76h-1.888V5.612
		h4.16c1.707,0,2.928,0.288,3.664,0.864C-58.394,7.052-58.026,7.975-58.026,9.245z M-60.538,10.829
		c0.384-0.331,0.576-0.861,0.576-1.592c0-0.73-0.197-1.232-0.592-1.504c-0.395-0.272-1.099-0.408-2.112-0.408h-2.4v4h2.352
		C-61.647,11.324-60.922,11.159-60.538,10.829z"/>
	<path fill="#FFFFFF" d="M-53.417,16.797h-1.888V5.612h2.944l3.376,7.024l3.376-7.024h2.928v11.185h-1.888V8.061l-3.904,7.76h-1.056
		l-3.888-7.76V16.797z"/>
	<path fill="#FFFFFF" d="M-31.722,5.612v1.776h-5.968v2.96h5.36v1.68h-5.36v2.992h6.16v1.776h-8.048V5.612H-31.722z"/>
	<path fill="#FFFFFF" d="M-20.186,9.245c0,1.845-0.806,3.008-2.416,3.488l2.928,4.064h-2.4l-2.672-3.76h-2.48v3.76h-1.888V5.612
		h4.16c1.707,0,2.928,0.288,3.664,0.864C-20.554,7.052-20.186,7.975-20.186,9.245z M-22.698,10.829
		c0.384-0.331,0.576-0.861,0.576-1.592c0-0.73-0.197-1.232-0.592-1.504c-0.395-0.272-1.099-0.408-2.112-0.408h-2.4v4h2.352
		C-23.808,11.324-23.082,11.159-22.698,10.829z"/>
</g>
<g>
	
		<line fill="none" stroke="#FFFFFF" stroke-width="0.9456" stroke-miterlimit="10" x1="20.794" y1="-4.25" x2="-11.706" y2="28.25"/>
	
		<line fill="none" stroke="#FFFFFF" stroke-width="0.9456" stroke-miterlimit="10" x1="20.794" y1="-4.25" x2="-11.706" y2="28.25"/>
	
		<line fill="none" stroke="#FFFFFF" stroke-width="0.9456" stroke-miterlimit="10" x1="20.794" y1="28.25" x2="-11.706" y2="-4.25"/>
</g>
</svg>
